<?xml version="1.0" encoding="UTF-8"?>
<!-- Svg Vector Icons : http://www.onlinewebfonts.com/icon -->
<!DOCTYPE svg PUBLIC "-//W3C//DTD SVG 1.1//EN" "http://www.w3.org/Graphics/SVG/1.1/DTD/svg11.dtd">
<svg version="1.1" xmlns="http://www.w3.org/2000/svg" xmlns:xlink="http://www.w3.org/1999/xlink" x="0px" y="0px" viewBox="0 0 1000 1000" enable-background="new 0 0 1000 1000" xml:space="preserve">
<metadata> Svg Vector Icons : http://www.onlinewebfonts.com/icon </metadata>
<g><g transform="translate(0.000000,465.000000) scale(0.100000,-0.100000)"><path d="M248.1,4087.7c-57.4-21.1-134-109.1-145.5-170.4c-15.3-80.4,38.3-191.4,109.1-227.8c42.1-23,151.2-28.7,541.7-28.7h486.2l11.5-51.7c5.7-30.6,201-1290.2,432.6-2802.5C2085.8-1821.7,2105-1953.8,2105-2218c0-294.8,23-425,103.4-601.1c67-143.6,204.8-315.9,331.2-409.7c160.8-120.6,273.7-168.5,526.4-220.1l51.7-11.5l-47.9-105.3c-248.9-541.7,141.7-1183,748.5-1229c432.6-32.5,836.6,266.1,928.4,685.3c34.5,157,17.2,384.8-42.1,528.4l-49.8,120.6h1230.9h1230.9l-51.7-118.7c-44-107.2-49.8-145.5-49.8-342.6c0-216.3,1.9-222.1,72.7-369.5c256.5-516.9,884.4-668.1,1340-321.6c296.7,227.8,425,637.5,302.5,970.5c-22.9,63.2-45.9,130.2-53.6,149.3c-9.6,28.7,7.7,32.5,183.8,32.5c227.8,0,296.7,24.9,338.8,124.4c34.5,82.3,34.5,112.9-1.9,189.5c-59.3,126.3,185.7,116.8-3129.9,126.3l-3015,9.6l-128.3,63.2c-243.1,120.6-359.9,312-375.2,620.2l-9.6,185.7l2840.8,5.8c2647.5,5.7,2848.5,9.6,2953.8,40.2c298.6,88,572.4,313.9,704.5,580c74.6,153.1,88.1,210.6,469,2119.1L9900,2563.9l-32.5,70.8c-65.1,135.9,247,126.4-3769.2,126.4H2468.7l-57.4-51.7c-105.3-95.7-107.2-239.3-7.7-333.1l49.8-45.9l3472.5-5.7c3292.6-3.8,3474.4-5.8,3464.9-38.3c-5.7-17.2-166.5-815.5-356-1774.6c-264.2-1317-359.9-1763.1-394.3-1833.9c-63.2-124.4-181.9-237.4-312.1-298.6l-107.2-49.8l-2852.3-5.7l-2852.3-3.8l-428.8,2789.1c-235.5,1535.3-440.3,2819.8-453.7,2852.3c-13.4,34.5-53.6,80.4-88.1,101.5c-59.3,36.4-93.8,38.3-666.2,36.4C548.7,4099.2,263.4,4093.4,248.1,4087.7z M4007.8-3487.2c126.3-38.3,210.6-109.1,268-225.9c91.9-183.8,42.1-425-114.9-543.6c-208.7-160.8-507.3-109.1-652.8,109.1c-47.9,72.8-53.6,97.6-53.6,239.3c0,143.6,5.7,164.6,57.4,239.3c68.9,95.7,130.2,143.6,231.6,180C3839.3-3454.6,3896.8-3454.6,4007.8-3487.2z M8114-3531.2c47.9-30.6,112.9-91.9,145.5-137.8c51.7-74.6,57.4-95.7,57.4-239.3c0-141.6-5.7-166.5-53.6-239.3c-191.4-289.1-614.5-266.1-767.6,40.2C7298.5-3713.1,7740.7-3301.5,8114-3531.2z"/><path d="M3569.4,1853.7C3460.3,1805.9,3445,1758,3445,1469v-258.4h-248.9c-279.5,0-342.7-19.1-392.4-114.9c-45.9-90-36.4-181.9,26.8-252.7l55.5-63.2l275.7-9.6l273.7-9.6l5.7-444.1l3.8-444.1l-279.5-5.7l-279.5-5.7l-55.5-63.2c-78.5-88.1-78.5-206.8,0-294.8l55.5-63.2l279.5-5.7l279.5-5.8v-264.2c0-285.2,11.5-321.6,114.9-375.2c72.7-38.3,143.6-36.4,212.5,3.8c91.9,55.5,112.9,126.3,112.9,396.3v241.2h440.3h440.3v-229.7c0-333.1,51.7-430.7,229.7-430.7c178,0,229.7,97.6,229.7,430.7v229.7h440.3h440.3V-811c0-269.9,21.1-340.8,112.9-396.3c68.9-40.2,139.7-42.1,212.5-3.8c103.4,53.6,114.9,88,114.9,377.1v264.2H6996h449.9v-248.9c0-279.5,19.1-342.7,114.9-392.4c70.8-36.4,139.7-36.4,210.6,0c95.7,49.8,114.9,112.9,114.9,392.4v248.9H8135c279.5,0,342.7,19.1,392.4,114.9c36.4,70.8,36.4,139.7,0,210.6c-49.8,95.7-112.9,114.9-392.4,114.9h-248.9v449.9v449.9h264.2c289.1,0,323.5,11.5,377.1,114.9c38.3,72.7,36.4,143.6-3.8,212.5c-55.5,91.9-126.3,112.9-396.3,112.9h-241.2v250.8c0,281.4-19.1,338.8-126.3,390.5c-78.5,36.4-111,36.4-191.4-1.9c-105.3-49.8-122.5-105.3-122.5-390.5v-248.9H6996h-449.9v260.3c0,294.8-19.1,350.3-143.6,390.5c-90,28.7-164.6,9.6-231.6-59.4c-55.5-57.4-55.5-59.3-61.3-325.4l-7.7-266.1h-438.4h-438.4V1446c0,277.6-24.9,346.5-141.7,403.9c-68.9,32.5-82.3,34.5-151.2,9.6c-135.9-47.9-157-97.6-162.7-392.4l-7.7-256.5h-438.4h-438.4v245c0,271.8-13.4,314-112.9,381C3699.6,1886.3,3651.7,1890.1,3569.4,1853.7z M4765.9,320.4v-449.9h-440.3h-440.3v449.9v449.9h440.3h440.3V320.4z M6105.9,320.4v-449.9h-440.3h-440.3v449.9v449.9h440.3h440.3V320.4z M7445.9,320.4v-449.9H6996h-449.9V307c0,241.2,5.7,444.1,13.4,449.9c5.7,7.7,208.7,13.4,449.9,13.4h436.5V320.4z"/></g></g>
</svg>